<?xml version="1.0" encoding="UTF-8"?>
<svg version="1.1" xmlns="http://www.w3.org/2000/svg" width="1920" height="1080">
<path d="M0 0 C1.03382813 0.17144531 2.06765625 0.34289062 3.1328125 0.51953125 C12.14948925 2.38297778 19.9520444 6.69798732 28 11 C29.20928977 11.63477351 30.41891073 12.26891658 31.62890625 12.90234375 C38.65016912 16.62044008 45.49595839 20.46516139 51.9375 25.125 C57.83707009 28.73698169 64.02400393 30.82070542 71 30 C74.69101251 28.25702187 75.76214498 25.72872786 77.29101562 22.0480957 C78.52314898 18.48874076 79.0614688 14.83918289 79.625 11.125 C80.88392857 3.11607143 80.88392857 3.11607143 82 2 C84.69654854 1.92680379 87.36691458 1.90757463 90.0625 1.9375 C90.82111328 1.94201172 91.57972656 1.94652344 92.36132812 1.95117188 C94.24091871 1.9629932 96.12046899 1.98092922 98 2 C99.09807681 5.44358434 98.9725258 8.32897267 98.68212891 11.91503906 C98.59176361 13.11610291 98.50139832 14.31716675 98.40829468 15.55462646 C98.25646225 17.51532074 98.25646225 17.51532074 98.1015625 19.515625 C96.87530695 36.49632783 96.56921268 53.44866812 96.39910889 70.4677124 C96.36688268 73.51843249 96.32733525 76.569038 96.28751755 79.61966705 C96.12909415 91.79367174 95.97331407 103.96735524 96.01269531 116.14257812 C96.01637115 117.4020929 96.020047 118.66160767 96.02383423 119.95928955 C96.03373653 122.31246564 96.04842871 124.66562814 96.06869507 127.01873779 C96.07390167 128.04799377 96.07910828 129.07724976 96.08447266 130.13769531 C96.09209625 131.03401672 96.09971985 131.93033813 96.10757446 132.8538208 C96 135 96 135 95 137 C89.39 137 83.78 137 78 137 C77.84144531 135.7625 77.68289063 134.525 77.51953125 133.25 C76.18567433 123.20435941 74.58233385 113.24432269 72.5625 103.3125 C72.27306519 101.84586914 72.27306519 101.84586914 71.9777832 100.34960938 C70.62773722 93.89932853 68.61111398 88.04217532 66 82 C65.56816406 80.9275 65.13632812 79.855 64.69140625 78.75 C62.33625964 73.01289546 59.80514284 67.45101008 56.91796875 61.9609375 C56 60 56 60 56 58 C55.34 58 54.68 58 54 58 C52.89208433 56.39801383 51.86457308 54.74017158 50.875 53.0625 C39.53394929 34.77124015 21.07863871 21.12884255 0.0625 16.125 C-24.02089914 11.11159148 -51.68765045 11.59384464 -73 25 C-88.97570288 36.29032232 -100.29413303 51.52262267 -103.7890625 71.04296875 C-105.36132625 81.41432895 -105.04070907 91.59290928 -104 102 C-103.90976563 102.99515625 -103.81953125 103.9903125 -103.7265625 105.015625 C-101.98197239 117.96436051 -95.21583431 130.08107528 -87 140 C-86.33871094 140.80050781 -85.67742187 141.60101563 -84.99609375 142.42578125 C-80.701901 147.4258687 -76.08745395 151.81968398 -71 156 C-70.21625 156.64839844 -69.4325 157.29679688 -68.625 157.96484375 C-59.39867679 165.47564749 -49.69223385 171.8665691 -39.52978516 178.02050781 C-35.0732907 180.72101875 -30.69154882 183.48633835 -26.3828125 186.41796875 C-18.13180304 191.89609798 -9.627319 197.00691981 -1.1875 202.1875 C3.69055585 205.18290297 8.53605804 208.22366453 13.35546875 211.3125 C15.0383688 212.38637418 16.72784191 213.4500665 18.42578125 214.5 C32.43970882 223.21783985 45.9481979 232.90555487 59 243 C60.24910156 243.9590625 60.24910156 243.9590625 61.5234375 244.9375 C68.3431091 250.27276359 74.71300778 256.05686083 81 262 C81.86882812 262.8146875 82.73765625 263.629375 83.6328125 264.46875 C103.31661093 283.47379676 116.05976585 306.94764614 120 334 C120.13148438 334.8559375 120.26296875 335.711875 120.3984375 336.59375 C122.94509905 356.69172764 121.1207735 379.01127067 114 398 C113.63003906 399.0828125 113.26007813 400.165625 112.87890625 401.28125 C108.68338253 413.05622804 102.02886504 422.51815005 94 432 C93.2884375 432.84691406 92.576875 433.69382812 91.84375 434.56640625 C86.72897739 440.46460354 81.30181958 445.39911403 75 450 C74.08476562 450.66902344 73.16953125 451.33804687 72.2265625 452.02734375 C34.59214847 478.31089564 -15.42132734 481.16768153 -59.4375 473.9375 C-75.49433486 470.41673222 -90.81756982 463.15836701 -105 455 C-107.19171408 453.75928397 -109.3856413 452.52256903 -111.58032227 451.28710938 C-112.99349399 450.48948707 -114.40427552 449.68761028 -115.81225586 448.88085938 C-120.32179958 446.31019607 -123.80954399 444.82582121 -129 444.625 C-129.86625 444.57601563 -130.7325 444.52703125 -131.625 444.4765625 C-134.19189813 444.77920454 -134.19189813 444.77920454 -135.68359375 447.13671875 C-139.44790901 455.3243837 -141.41783845 464.16626469 -143 473 C-148.61 473 -154.22 473 -160 473 C-159.93361328 471.21158691 -159.86722656 469.42317383 -159.79882812 467.58056641 C-159.11860655 447.6261667 -158.85829294 427.67591125 -158.71875 407.7109375 C-158.71398148 407.04013185 -158.70921295 406.36932619 -158.70429993 405.67819309 C-158.61990014 393.8010742 -158.54532962 381.92389539 -158.47393799 370.04669189 C-158.42719358 362.28499238 -158.37824396 354.52332066 -158.32245111 346.76168025 C-158.28969297 342.16408755 -158.2643167 337.56648596 -158.2401123 332.96884155 C-158.22353311 330.59559923 -158.20666345 328.22235892 -158.18945312 325.84912109 C-158.18526871 324.7575621 -158.18108429 323.66600311 -158.17677307 322.54136658 C-158.16425758 321.06276405 -158.16425758 321.06276405 -158.15148926 319.55429077 C-158.14633553 318.69362692 -158.14118179 317.83296307 -158.13587189 316.94621849 C-158 315 -158 315 -157 314 C-154.30345146 313.92680379 -151.63308542 313.90757463 -148.9375 313.9375 C-148.17888672 313.94201172 -147.42027344 313.94652344 -146.63867188 313.95117188 C-144.75908129 313.9629932 -142.87953101 313.98092922 -141 314 C-139.45430004 318.23338718 -138.60000576 322.15390286 -138.10546875 326.62890625 C-137.9573877 327.90088867 -137.80930664 329.17287109 -137.65673828 330.48339844 C-137.58070374 331.14915894 -137.50466919 331.81491943 -137.42633057 332.50085449 C-135.87146908 345.92280986 -133.69972691 358.98450957 -130 372 C-129.77054688 372.81355957 -129.54109375 373.62711914 -129.3046875 374.46533203 C-120.25642336 405.97889483 -104.49437355 433.42728827 -75.5078125 450.46484375 C-68.68697519 454.14362322 -61.50797204 456.19066379 -54 458 C-52.13794922 458.45246094 -52.13794922 458.45246094 -50.23828125 458.9140625 C-27.08640532 464.00701378 -3.44214683 462.09011719 18 452 C18.94488281 451.56558594 19.88976562 451.13117188 20.86328125 450.68359375 C36.7666204 442.5924212 48.29419853 428.38730234 55 412 C62.66266512 387.63511949 62.01715994 357.4941416 50.28198242 334.6159668 C46.91812663 328.46524724 42.68995619 323.19818339 38 318 C33 312.24418605 33 312.24418605 33 310 C32.14728516 309.62875 32.14728516 309.62875 31.27734375 309.25 C28.63388341 307.79904407 26.75508647 306.0705707 24.5625 304 C18.66294234 298.59496408 12.40601591 293.78010332 6 289 C5.09378906 288.32066406 4.18757812 287.64132812 3.25390625 286.94140625 C-8.46799418 278.28496566 -20.67444231 270.48382804 -33.20654297 263.06591797 C-41.25235367 258.28399454 -49.13830934 253.29783829 -56.8984375 248.06640625 C-59.66658137 246.22213912 -62.45718413 244.42459683 -65.26489258 242.6418457 C-71.13570027 238.9126908 -76.83222582 235.03457884 -82.42578125 230.89453125 C-84.90144192 229.07253516 -87.40945438 227.31083043 -89.9375 225.5625 C-109.3311522 212.0457121 -126.1891157 196.98191715 -139 177 C-139.56460938 176.12472656 -140.12921875 175.24945312 -140.7109375 174.34765625 C-147.29664224 163.76706969 -151.10501736 153.06242767 -154 141 C-154.32484375 139.69289063 -154.32484375 139.69289063 -154.65625 138.359375 C-158.54098164 122.02065076 -158.5758255 103.35237053 -155 87 C-154.86045898 86.32743164 -154.72091797 85.65486328 -154.57714844 84.96191406 C-152.82830343 76.58156761 -150.98009654 68.63528725 -147 61 C-146.47664063 59.94296875 -145.95328125 58.8859375 -145.4140625 57.796875 C-143.9576658 54.85673142 -142.4851297 51.9257055 -141 49 C-140.34 49 -139.68 49 -139 49 C-138.77957031 48.31292969 -138.55914062 47.62585938 -138.33203125 46.91796875 C-136.65053449 43.23445531 -134.30800703 40.35513017 -131.6875 37.3125 C-130.89496826 36.39210938 -130.89496826 36.39210938 -130.08642578 35.453125 C-122.14030521 26.50001297 -112.48435758 19.7187405 -102 14 C-100.70449219 13.26523437 -100.70449219 13.26523437 -99.3828125 12.515625 C-70.05816669 -3.24332593 -32.29039235 -5.54659912 0 0 Z " fill="#FEFEFE" transform="translate(200,341)"/>
<path d="M0 0 C0.56936781 0.01223315 1.13873562 0.0244663 1.725357 0.03707016 C38.34126429 0.81695237 74.93641911 1.15277299 111.56067204 1.1343255 C115.6171495 1.13278129 119.67362317 1.13290017 123.73010063 1.13381577 C124.41712591 1.133969 125.1041512 1.13412223 125.81199543 1.13428011 C127.2104263 1.13460004 128.60885716 1.13492425 130.00728803 1.1352527 C142.92442114 1.13806082 155.84154699 1.13489548 168.75867891 1.12945233 C179.6897902 1.12498763 190.62089085 1.12576677 201.55200195 1.13037109 C214.44474807 1.13579964 227.33748794 1.13778762 240.23023504 1.13475883 C241.62139507 1.13444049 243.0125551 1.13412612 244.40371513 1.13381577 C245.42874576 1.13358435 245.42874576 1.13358435 246.47448407 1.13334826 C251.14510601 1.13250759 255.81572365 1.13394393 260.48634529 1.13629532 C268.03916324 1.13962505 275.59196088 1.1373733 283.14477539 1.12939453 C284.34227264 1.12819115 285.53976988 1.12698777 286.77355492 1.12574792 C307.98164693 1.09445621 329.17909851 0.75818018 350.38115788 0.26107979 C351.49566181 0.23663709 352.61016574 0.21219439 353.75844252 0.187011 C355.84482927 0.14100353 357.93112888 0.09079338 360.01729715 0.0357635 C360.9290916 0.01609562 361.84088605 -0.00357226 362.78031063 -0.02383614 C363.57598947 -0.04342105 364.37166832 -0.06300596 365.19145864 -0.08318436 C367 0 367 0 368 1 C368.1687638 7.51184253 367.82203435 13.95435139 367.37890625 20.44921875 C367.31468979 21.42429886 367.25047333 22.39937897 367.18431091 23.40400696 C366.97979759 26.4986949 366.7711798 29.59309052 366.5625 32.6875 C366.42616989 34.74412325 366.29010004 36.80076377 366.15429688 38.85742188 C365.07630591 55.11088759 365.07630591 55.11088759 364.68579102 60.0625 C364.04583601 68.25944391 363.80884104 76.40332687 363.8125 84.625 C363.81091385 85.62250778 363.81091385 85.62250778 363.80929565 86.64016724 C363.80317129 100.03454838 364.49577005 113.37232486 365.3762207 126.73486328 C365.42397644 127.48148727 365.47173218 128.22811127 365.52093506 128.99736023 C365.65215177 131.02844364 365.79080068 133.05904298 365.92993164 135.08959961 C365.9530542 136.05003174 365.97617676 137.01046387 366 138 C365 139 365 139 361.40234375 139.09765625 C359.91403133 139.0909822 358.42573568 139.07902183 356.9375 139.0625 C356.17888672 139.05798828 355.42027344 139.05347656 354.63867188 139.04882812 C352.75908129 139.0370068 350.87953101 139.01907078 349 139 C347.54160207 134.26219598 346.59980352 129.78812188 346.03515625 124.84375 C345.95631699 124.1789563 345.87747772 123.5141626 345.79624939 122.82922363 C345.46401465 120.0267729 345.14484621 117.2228827 344.82543945 114.41894531 C343.68367218 104.482167 342.12396251 94.78371949 340 85 C339.66681763 83.43306396 339.66681763 83.43306396 339.3269043 81.83447266 C334.9187643 61.613556 328.90289933 42.12656141 311.109375 29.7890625 C305.70260548 26.6781323 299.93699786 24.83442568 294 23 C292.99710938 22.64808594 291.99421875 22.29617188 290.9609375 21.93359375 C287.94416556 20.98239521 285.0638264 20.40783229 281.9375 19.9375 C280.43509766 19.70353516 280.43509766 19.70353516 278.90234375 19.46484375 C265.19734796 17.83231672 251.47202971 17.6911014 237.6875 17.4375 C235.48241521 17.39421854 233.27733698 17.35060151 231.07226562 17.30664062 C225.71491326 17.20055724 220.35749469 17.09861957 215 17 C215.10477901 64.19459568 215.21459518 111.38917733 215.33111694 158.58374556 C215.34488564 164.16219422 215.35861287 169.74064297 215.37231445 175.3190918 C215.37504276 176.42960721 215.37777106 177.54012262 215.38058204 178.68429001 C215.42459347 196.63869245 215.46524894 214.59310099 215.50465261 232.54751406 C215.54519385 250.98602744 215.58936839 269.42452957 215.63687855 287.86302632 C215.66605444 299.23007507 215.69243486 310.59712311 215.71517897 321.96418657 C215.73107176 329.77106937 215.75051054 337.57793845 215.77266841 345.38480595 C215.78532784 349.88122556 215.79649048 354.37763491 215.80341911 358.87406731 C214.97997762 388.95445489 214.97997762 388.95445489 218.625 418.625 C218.79829834 419.36588867 218.97159668 420.10677734 219.15014648 420.87011719 C221.37529984 429.48226722 225.40620551 434.70363162 233 439.375 C244.27548431 444.89084503 256.90539245 445.44011935 269.23144531 446.26660156 C270.65408691 446.36859863 270.65408691 446.36859863 272.10546875 446.47265625 C272.95262451 446.52687744 273.79978027 446.58109863 274.67260742 446.63696289 C277 447 277 447 281 449 C281 453.29 281 457.58 281 462 C277.64365905 462.83908524 275.80280551 463.08025408 272.48629761 462.88357544 C271.13100795 462.8119711 271.13100795 462.8119711 269.7483387 462.73892021 C268.76001486 462.6834408 267.77169102 462.62796139 266.75341797 462.57080078 C252.22105291 461.86579002 237.69788362 461.8525139 223.15269327 461.8656745 C219.37465255 461.86826408 215.59661385 461.8658426 211.818573 461.86428833 C205.48011836 461.86248496 199.14167549 461.86482371 192.80322266 461.86962891 C185.55280236 461.8750632 178.30241024 461.87330741 171.05199063 461.8678025 C164.74626688 461.86321277 158.44055143 461.86264916 152.13482654 461.86524117 C148.40416116 461.8667728 144.67350885 461.86708633 140.94284439 461.86370468 C122.9412373 461.84954366 104.98370707 462.13922225 87 463 C86.70703125 452.2578125 86.70703125 452.2578125 87 449 C90.18479808 446.87680128 91.32015902 446.69671468 95.015625 446.47265625 C96.01311768 446.4041748 97.01061035 446.33569336 98.03833008 446.26513672 C99.09818115 446.1982666 100.15803223 446.13139648 101.25 446.0625 C109.7723608 445.45189334 117.94235817 444.48660299 126.26953125 442.5859375 C129 442 129 442 132 442 C132 441.34 132 440.68 132 440 C133.19625 439.505 134.3925 439.01 135.625 438.5 C141.81132958 435.37946207 145.32163074 430.34066272 147.75 423.9375 C151.06749381 412.06876791 151.29613283 399.77500103 151.2784729 387.54212952 C151.28348864 385.93700792 151.28936813 384.33188883 151.29602563 382.7267732 C151.31168511 378.35964272 151.31524848 373.9925768 151.31667423 369.62542164 C151.32039309 364.89965145 151.33556072 360.17391568 151.34928894 355.44816589 C151.37148801 347.27492197 151.38654536 339.10169041 151.39665604 330.92842293 C151.41128458 319.11147136 151.43683296 307.29456291 151.46498732 295.47763675 C151.51037968 276.30224129 151.54702562 257.12683959 151.578125 237.95141602 C151.60834156 219.33193875 151.64270605 200.7124767 151.68261719 182.09301758 C151.68507874 180.94397814 151.68754028 179.7949387 151.69007643 178.61107988 C151.70245163 172.84628774 151.71490805 167.08149579 151.72740483 161.31670392 C151.83085941 113.54449055 151.9200999 65.77225818 152 18 C145.83342613 17.94967958 139.66697781 17.91385675 133.50024414 17.89013672 C131.4126578 17.880224 129.32508477 17.86668988 127.23754883 17.84912109 C95.37841987 17.51885541 95.37841987 17.51885541 65 26 C64.32195312 26.28617187 63.64390625 26.57234375 62.9453125 26.8671875 C48.03241703 33.63488705 39.4180885 45.8292028 33.79345703 60.72412109 C31.26020498 67.99026743 29.58876651 75.48087322 28 83 C27.8237207 83.8264502 27.64744141 84.65290039 27.46582031 85.50439453 C24.58758579 99.32586033 22.8823484 113.27765176 21.30639648 127.2956543 C21.22624298 127.99741791 21.14608948 128.69918152 21.06350708 129.42221069 C20.84422897 131.34980549 20.63056688 133.27803674 20.41723633 135.20629883 C20 138 20 138 19 139 C16.13732433 139.07325168 13.299281 139.09238205 10.4375 139.0625 C9.63119141 139.05798828 8.82488281 139.05347656 7.99414062 139.04882812 C5.99606244 139.03700518 3.99802217 139.01906914 2 139 C1.87380312 131.55438393 1.87380312 131.55438393 2.49801636 128.81221008 C3.10353623 125.41996987 3.12725103 122.21326077 3.12939453 118.76635742 C3.13114685 118.05671341 3.13289917 117.3470694 3.13470459 116.61592102 C3.1390914 114.27907842 3.13619534 111.94231207 3.1328125 109.60546875 C3.13348667 107.97268153 3.13445765 106.33989442 3.13571167 104.70710754 C3.13718454 101.28674361 3.13504811 97.86640582 3.13037109 94.44604492 C3.12468763 90.07840728 3.12794664 85.71083128 3.13394356 81.34319592 C3.13757185 77.97072391 3.13639995 74.5982663 3.13381577 71.22579384 C3.13315206 69.61636663 3.13395533 68.00693808 3.13629532 66.39751244 C3.13885768 64.1389156 3.13493064 61.88041585 3.12939453 59.62182617 C3.12859894 58.34007004 3.12780334 57.0583139 3.12698364 55.73771667 C2.99158191 51.75221665 2.53833188 47.94968731 2 44 C1.63363241 39.62556499 1.35075684 35.24669337 1.07006836 30.8659668 C0.93889586 28.83412164 0.80071681 26.80283412 0.66210938 24.77148438 C0.57509064 23.43752799 0.48848936 22.1035443 0.40234375 20.76953125 C0.32491943 19.58979736 0.24749512 18.41006348 0.16772461 17.19458008 C-0.02064861 13.54130346 -0.01662966 9.89556475 -0.01048279 6.23783875 C-0.00896934 5.06912578 -0.00745588 3.90041281 -0.00589657 2.69628429 C-0.0039507 1.80651048 -0.00200483 0.91673666 0 0 Z " fill="#FEFEFE" transform="translate(1534,346)"/>
<path d="M0 0 C0.81314919 0.01958491 1.62629837 0.03916983 2.46408844 0.05934823 C3.39558716 0.07901611 4.32708588 0.09868399 5.28681183 0.11894786 C6.31746765 0.14556601 7.34812347 0.17218416 8.41001129 0.19960892 C10.64792364 0.247952 12.88583883 0.29616395 15.12375641 0.34426415 C16.92011787 0.38555518 16.92011787 0.38555518 18.75276947 0.42768037 C40.2096358 0.91296772 61.66035345 1.1910244 83.12290192 1.21257889 C84.33947983 1.21386347 85.55605774 1.21514805 86.80950165 1.21647155 C94.4336368 1.22280054 102.0577564 1.22135244 109.6818924 1.21750987 C113.73636754 1.21596555 117.79083888 1.21608459 121.84531403 1.21700013 C122.53205059 1.21715336 123.21878715 1.21730659 123.9263339 1.21746447 C125.32419904 1.2177844 126.72206418 1.21810862 128.11992931 1.21843706 C141.03232379 1.22124526 153.94471102 1.21807983 166.8571043 1.21263669 C177.78164462 1.20817301 188.70617429 1.20895028 199.63071442 1.21355546 C212.51724419 1.21898566 225.4037677 1.22097102 238.29029846 1.21794319 C239.68119558 1.21762486 241.07209269 1.21731048 242.46298981 1.21700013 C243.14620285 1.21684585 243.82941588 1.21669158 244.53333235 1.21653263 C249.20047882 1.21569235 253.86762098 1.21712743 258.53476715 1.21947968 C294.42011099 1.23517519 330.27726867 0.8539114 366.15415192 0.08318436 C365.99923677 2.92507143 365.84350743 5.76691012 365.68732452 8.60872757 C365.62245236 9.80109072 365.62245236 9.80109072 365.55626965 11.017542 C365.28682331 15.90683301 364.97629312 20.79051347 364.6233902 25.67449296 C363.01605372 48.70824382 362.91005021 71.66603494 363.01682281 94.74767411 C363.03774235 99.77095125 363.04651224 104.79425069 363.05649567 109.81755936 C363.07757832 119.57282325 363.11144372 129.32799274 363.15415192 139.08318436 C360.50825178 139.11003115 357.86262096 139.12994793 355.21665192 139.14568436 C354.46190582 139.15406327 353.70715973 139.16244217 352.92954254 139.17107499 C351.00420878 139.17970877 349.07879611 139.13542769 347.15415192 139.08318436 C345.38507235 137.31410479 345.62362974 134.70832818 345.32212067 132.30193436 C345.16574127 131.08006424 345.00936188 129.85819413 344.84824371 128.59929764 C344.76601562 127.94511857 344.68378754 127.29093949 344.59906769 126.6169368 C344.16329804 123.17407242 343.70501353 119.7342071 343.24790192 116.29412186 C343.15534622 115.59697068 343.06279053 114.89981949 342.96743011 114.18154252 C342.69710493 112.14865324 342.42580528 110.11589654 342.15415192 108.08318436 C342.00075348 106.93366288 341.84735504 105.78414139 341.68930817 104.59978592 C338.89038602 84.13421578 335.02086283 62.9725996 324.15415192 45.08318436 C323.65786285 44.25044999 323.16157379 43.41771561 322.65024567 42.55974686 C313.86484243 29.65687394 297.27874401 23.50903154 282.60727692 20.30974686 C271.66552976 18.50357329 260.55620179 17.95409773 249.48227692 17.76677811 C248.43384613 17.74599701 247.38541534 17.72521592 246.30521393 17.70380509 C243.00491688 17.63919762 239.70455063 17.57984427 236.40415192 17.52068436 C234.14633269 17.47741435 231.88852007 17.4337976 229.63071442 17.38982499 C224.1385969 17.28360946 218.64641284 17.18169011 213.15415192 17.08318436 C213.23601204 65.16955026 213.32821892 113.25588672 213.43420353 161.34220581 C213.44672163 167.02580332 213.45915453 172.70940101 213.47153473 178.39299881 C213.47400072 179.52444853 213.47646672 180.65589824 213.47900744 181.82163431 C213.518676 200.11552699 213.5514494 218.4094258 213.58165173 236.70333628 C213.61282176 255.48990254 213.65145471 274.27644289 213.69694197 293.06298 C213.72475215 304.64499785 213.7468174 316.22699686 213.76141442 327.80903902 C213.77199803 335.76310704 213.78986393 343.71713847 213.81331895 351.67117886 C213.82661817 356.25267073 213.83683862 360.83411158 213.83836555 365.41562378 C211.6545672 399.21093179 211.6545672 399.21093179 221.27915192 430.02068436 C224.15415192 433.92050494 224.15415192 433.92050494 224.15415192 436.08318436 C224.83477692 436.33068436 225.51540192 436.57818436 226.21665192 436.83318436 C229.15415192 438.08318436 229.15415192 438.08318436 232.11899567 440.02459061 C236.98293305 442.82490434 242.1681357 443.45165745 247.65415192 444.27068436 C249.24404938 444.52374344 249.24404938 444.52374344 250.86606598 444.78191483 C258.02364446 445.88048445 265.08433319 446.59481075 272.32602692 446.80974686 C275.15415192 447.08318436 275.15415192 447.08318436 279.15415192 449.08318436 C279.15415192 453.37318436 279.15415192 457.66318436 279.15415192 462.08318436 C275.46474037 462.82106667 273.30058728 463.19022178 269.74918365 462.9667598 C268.46377245 462.89515546 268.46377245 462.89515546 267.15239334 462.82210457 C266.21872562 462.76662516 265.28505791 462.71114575 264.32309723 462.65398514 C250.09882773 461.92899726 235.88124618 461.93588811 221.64309978 461.94885886 C217.89354833 461.95144686 214.14399892 461.94902727 210.39444733 461.94747269 C204.10129092 461.94566844 197.80814636 461.94801 191.51499176 461.95281327 C184.31971176 461.95824294 177.12446017 461.9564955 169.92918086 461.95098686 C163.67101961 461.94639393 157.41286673 461.94583516 151.15470433 461.94842553 C147.45249675 461.94995608 143.75030235 461.95027403 140.0480957 461.94688904 C121.72680074 461.93235325 103.45883736 462.26217588 85.15415192 463.08318436 C85.15415192 458.13318436 85.15415192 453.18318436 85.15415192 448.08318436 C88.28987617 447.2992533 90.86845116 446.87670287 94.04868317 446.65349686 C119.35044815 445.29522828 119.35044815 445.29522828 141.09165192 433.45818436 C146.9496865 423.87230959 148.21697519 413.0749019 149.15415192 402.08318436 C149.23773673 401.11016346 149.32132154 400.13714255 149.40743923 399.13463616 C150.10791631 390.24216157 150.29137966 381.41008792 150.26767731 372.49379838 C150.26739659 370.97076466 150.26756165 369.4477308 150.2681284 367.92469716 C150.26842131 363.77966099 150.26252748 359.63465407 150.25555849 355.48962462 C150.2491426 351.00440971 150.24861213 346.51919356 150.24738312 342.03397477 C150.24450612 334.27541878 150.23808319 326.5168724 150.22931671 318.75832093 C150.21673017 307.53660353 150.21067869 296.31488966 150.20638335 285.09316637 C150.199328 266.87792216 150.18853361 248.66268242 150.17465973 230.44744217 C150.17383192 229.35885282 150.17300411 228.27026346 150.17215121 227.14868654 C150.16624862 219.41851907 150.16021295 211.68835171 150.15415192 203.95818436 C150.14721883 195.11052818 150.14035357 186.26287196 150.1336441 177.41521561 C150.13281598 176.32492798 150.13198785 175.23464034 150.13113463 174.11131369 C150.11746154 155.94929314 150.10769674 137.78727252 150.10073376 119.62524819 C150.09624914 108.42611721 150.08820209 97.22699938 150.07558894 86.02787454 C150.06718001 78.36514736 150.06227636 70.70242322 150.06016374 63.03969173 C150.05881561 58.61590925 150.05578689 54.1921438 150.04840469 49.76836693 C150.04167822 45.72245163 150.03951489 41.67656101 150.0410403 37.63064064 C150.04076791 36.16397068 150.03878215 34.69729988 150.03494751 33.23063491 C150.02999027 31.2430442 150.03175952 29.25544006 150.0338974 27.26784432 C150.03251471 25.60921783 150.03251471 25.60921783 150.03110409 23.91708374 C150.137772 21.46042809 150.43966388 19.4239645 151.15415192 17.08318436 C144.82661957 17.17825967 138.49940317 17.28464638 132.17221832 17.40056717 C130.02936463 17.43834646 127.88645842 17.47327761 125.74350739 17.50505936 C93.69129622 17.59759749 93.69129622 17.59759749 63.15415192 26.08318436 C62.4773941 26.36935624 61.80063629 26.65552811 61.10337067 26.95037186 C46.964527 33.35393633 38.26399693 44.99891266 32.59360504 59.06072342 C29.05639975 68.46740216 27.09488131 78.2478756 25.15415192 88.08318436 C24.97255524 88.97134842 24.79095856 89.85951249 24.60385895 90.77459061 C22.0638061 103.26107667 20.38090228 115.73775141 19.19272614 128.42571366 C19.08460602 129.52439774 18.9764859 130.62308182 18.86508942 131.75505936 C18.77533844 132.73571366 18.68558746 133.71636796 18.59311676 134.72673905 C18.15415192 137.08318436 18.15415192 137.08318436 16.15415192 139.08318436 C13.57351063 139.22816421 11.10471307 139.26995981 8.52915192 139.20818436 C7.82274567 139.19916092 7.11633942 139.19013749 6.38852692 139.18084061 C4.64359094 139.1572604 2.89882897 139.12138897 1.15415192 139.08318436 C0.1080168 135.77532796 0.2045601 133.16207181 0.58115387 129.72918046 C1.24065924 122.72591512 1.31593952 115.77780662 1.32212067 108.74724686 C1.32535225 107.37895024 1.32871755 106.01065393 1.33220673 104.64235795 C1.33815621 101.77985191 1.34005159 98.91737582 1.33945465 96.05486405 C1.33937437 93.18923857 1.34616532 90.32377629 1.35996246 87.45818436 C1.45422647 67.56574646 0.73995114 47.9195472 -0.84584808 28.08318436 C-0.96938277 26.46346068 -1.0921473 24.84367788 -1.21376801 23.22380936 C-1.56709941 18.5824894 -1.93628106 13.94275216 -2.32045746 9.30388749 C-2.40489105 8.22429764 -2.48932465 7.1447078 -2.57631683 6.03240311 C-2.65261322 5.09742997 -2.72890961 4.16245682 -2.80751801 3.19915116 C-2.82016693 2.50088212 -2.83281586 1.80261307 -2.84584808 1.08318436 C-1.84584808 0.08318436 -1.84584808 0.08318436 0 0 Z " fill="#FEFEFE" transform="translate(1131.845848083496,345.9168156385422)"/>
<path d="M0 0 C3.96 0 7.92 0 12 0 C17.35836442 9.89236507 20.83110271 20.66597372 24.5625 31.25 C26.3928749 36.41096215 28.41289157 41.44643992 30.5546875 46.484375 C32.43636484 51.06142798 34.18674661 55.6840715 35.9375 60.3125 C38.20020121 66.29223412 40.4806131 72.25918796 42.875 78.1875 C49.10452342 93.65157439 54.98966299 109.2540727 60.8125 124.875 C63.3155271 131.58756625 65.87748633 138.24805425 68.6953125 144.8359375 C70.53353657 149.29390605 72.23085813 153.80279923 73.9375 158.3125 C77.50905646 167.74964145 81.1904698 177.13346479 85.01171875 186.47265625 C87.28354857 192.0611659 89.3684457 197.70911795 91.4375 203.375 C93.31909252 208.52480363 95.21638378 213.64574932 97.375 218.6875 C99.92283573 224.65767613 102.17315343 230.73076604 104.4375 236.8125 C107.35241392 244.64129645 110.33567567 252.42544881 113.47265625 260.16796875 C115.38310068 264.91919427 117.18601151 269.71132559 119 274.5 C121.2817918 280.52206503 123.59022008 286.52793672 126 292.5 C128.74006321 299.29059144 131.35243436 306.12602343 133.93359375 312.97851562 C136.1053325 318.72326024 138.36390044 324.43050742 140.65248108 330.12945557 C143.46792459 337.14885428 146.20890918 344.1964677 148.9375 351.25 C149.3267717 352.25481918 149.3267717 352.25481918 149.72390747 353.27993774 C152.86464717 361.39065504 155.9615213 369.51457444 158.9375 377.6875 C161.02926065 383.43188134 163.22095007 389.10285915 165.6328125 394.72265625 C166.73472894 397.36410738 167.78159604 400.01136367 168.8046875 402.68359375 C172.40462452 412.02671092 176.22920383 420.78231003 181.43359375 429.34765625 C183 432 183 432 184 435 C184.66 435 185.32 435 186 435 C186.88558594 436.12728516 186.88558594 436.12728516 187.7890625 437.27734375 C194.69079066 445.77646835 205.84295671 448.46073918 216 451 C216 455.62 216 460.24 216 465 C211.83721553 466.04069612 209.07552616 465.90741493 204.82080078 465.57080078 C193.17639997 464.7633362 181.53400958 464.85551678 169.8671875 464.8671875 C167.45793651 464.86651171 165.04868558 464.8655394 162.63943481 464.86428833 C157.61183009 464.86282261 152.58424325 464.86492832 147.55664062 464.86962891 C141.17975363 464.87530689 134.80290891 464.87205218 128.42602348 464.86605644 C123.4548207 464.86240436 118.48362758 464.86361081 113.51242447 464.86618423 C111.16459269 464.86684169 108.81675997 464.86606748 106.46892929 464.86370468 C91.28470398 464.85177839 76.16428935 465.21197773 61 466 C61 461.05 61 456.1 61 451 C63.87021713 450.28244572 66.23296363 449.81642906 69.125 449.5703125 C88.17961859 448.48494864 88.17961859 448.48494864 104 439 C109.43499706 429.03583873 104.85062564 415.2336474 102 405 C101.10197223 402.38190364 100.11022792 399.87547902 98.99609375 397.34375 C97.84989492 394.64681158 96.95774796 391.91500972 96.0625 389.125 C94.7575686 385.11916406 93.30625188 381.24577655 91.64453125 377.375 C89.08006485 371.28104152 86.82230277 365.10904782 84.625 358.875 C81.71065702 350.68985611 78.71126796 342.55402746 75.52612305 334.47070312 C73.42617398 329.13046753 71.4125975 323.76261503 69.4375 318.375 C69.15036133 317.5922168 68.86322266 316.80943359 68.56738281 316.00292969 C67.99610324 314.44471764 67.4249757 312.88644985 66.85400391 311.328125 C65.45247296 307.50737054 64.0430667 303.68964695 62.625 299.875 C62.37419678 299.19356934 62.12339355 298.51213867 61.86499023 297.81005859 C60.84684619 294.66217451 60.84684619 294.66217451 59 292 C57.00038545 291.90327305 54.99729807 291.8781297 52.99534607 291.87974548 C51.68977753 291.87837082 50.38420898 291.87699615 49.03907776 291.87557983 C47.57870461 291.87911945 46.11833169 291.88275427 44.65795898 291.88647461 C43.13073732 291.88675647 41.60351553 291.88659877 40.07629395 291.8860321 C35.91738312 291.88574409 31.75850089 291.89164145 27.59959674 291.89860606 C23.25805476 291.90483894 18.91651219 291.90544335 14.57496643 291.90663147 C6.34786418 291.90974498 -1.87922486 291.91795863 -10.10632128 291.92798096 C-19.47013064 291.93914149 -28.83394062 291.94465239 -38.19775498 291.94967639 C-57.46517749 291.96014123 -76.73258769 291.97774105 -96 292 C-96.39659821 293.05915115 -96.79319641 294.11830231 -97.20181274 295.20954895 C-99.83314068 302.23371637 -102.46552125 309.25705366 -105.1484375 316.26171875 C-105.40684921 316.93677963 -105.66526093 317.61184052 -105.9315033 318.30735779 C-106.47118922 319.71712993 -107.01107958 321.12682382 -107.55117798 322.53643799 C-108.40129296 324.75615292 -109.25000417 326.97640047 -110.09838867 329.19677734 C-112.49926547 335.47871714 -114.9017696 341.75971985 -117.33984375 348.02734375 C-133.99674838 388.1161687 -133.99674838 388.1161687 -131.25 430.22265625 C-128.10711571 437.20575228 -123.73647473 440.80461826 -116.8046875 443.94140625 C-107.60983567 447.41188654 -98.08006886 448.46834081 -88.35961914 449.35424805 C-87.18774048 449.46119995 -87.18774048 449.46119995 -85.9921875 449.5703125 C-84.94587158 449.65949951 -84.94587158 449.65949951 -83.87841797 449.75048828 C-82 450 -82 450 -79 451 C-79 455.95 -79 460.9 -79 466 C-80.38815918 465.9292627 -81.77631836 465.85852539 -83.20654297 465.78564453 C-102.65222695 464.87790713 -122.08102122 464.84541114 -141.54394531 464.86962891 C-146.21846511 464.87536715 -150.89292796 464.87200425 -155.56744576 464.86605644 C-159.23272111 464.86241314 -162.89798333 464.86360587 -166.56325912 464.86618423 C-168.28609092 464.86684093 -170.008924 464.86607032 -171.7317543 464.86370468 C-182.53747386 464.85209556 -193.22003424 465.22333652 -204 466 C-204 461.05 -204 456.1 -204 451 C-191.67857143 445.77678571 -191.67857143 445.77678571 -188 445 C-188 444.34 -188 443.68 -188 443 C-186.27734375 441.73828125 -186.27734375 441.73828125 -183.9375 440.3125 C-176.00595533 435.16569828 -170.94573236 428.97911487 -166 421 C-165.50628906 420.25105469 -165.01257813 419.50210937 -164.50390625 418.73046875 C-160.32339533 412.18281138 -157.52469869 405.26513244 -154.78076172 398.03051758 C-153.89752124 395.73348472 -152.98156902 393.45089687 -152.0625 391.16796875 C-150.01798605 386.07361666 -148.0650031 380.9473781 -146.125 375.8125 C-143.86508582 369.85260669 -141.58235855 363.90731775 -139.1875 358 C-136.20298716 350.60395315 -133.38298391 343.14737721 -130.5625 335.6875 C-126.69465187 325.45791681 -122.79257614 315.24358028 -118.80615234 305.05957031 C-117.38816868 301.43688401 -115.9745331 297.81250934 -114.5625 294.1875 C-114.27745605 293.45619873 -113.99241211 292.72489746 -113.69873047 291.97143555 C-111.74522481 286.94805737 -109.82508714 281.91263918 -107.91577148 276.87231445 C-105.16799562 269.61903701 -102.3733641 262.40902863 -99.33984375 255.26953125 C-97.1243918 249.86331176 -95.08430734 244.39026044 -93.01831055 238.92553711 C-91.00663528 233.61347938 -88.94837709 228.32576113 -86.8125 223.0625 C-84.90761114 218.34661298 -83.12421419 213.61073043 -81.4375 208.8125 C-79.98745028 204.69106532 -78.46809841 200.64171472 -76.75 196.625 C-74.16460728 190.54891933 -71.86586351 184.37532121 -69.5625 178.1875 C-66.16634705 169.06989391 -62.6646069 160.01350389 -59 151 C-55.89486521 143.32883844 -52.80155498 135.6644206 -50.0546875 127.85546875 C-49.11875078 125.32150675 -48.13286781 122.81845037 -47.125 120.3125 C-45.05756096 115.17059134 -43.08367116 109.99661799 -41.125 104.8125 C-38.84125392 98.79147557 -36.53549453 92.78395237 -34.125 86.8125 C-31.33760735 79.904945 -28.66570509 72.95533981 -26 66 C-23.27050576 58.87892009 -20.53792968 51.76117658 -17.6875 44.6875 C-14.51559083 36.81547891 -11.4447184 28.9076971 -8.49609375 20.94921875 C-5.86845496 13.86447855 -3.18439137 6.8586891 0 0 Z M-17 86 C-20.43234253 94.46384465 -23.76401615 102.95920071 -27 111.5 C-29.80445612 118.90081419 -32.68218587 126.26504047 -35.640625 133.60546875 C-37.35804306 137.89407879 -39.01381684 142.20471697 -40.6640625 146.51953125 C-41.91041024 149.7665951 -43.17002567 153.00810048 -44.43408203 156.24829102 C-47.17656126 163.27827597 -49.88725985 170.31915937 -52.5625 177.375 C-56.02930901 186.51716894 -59.57684149 195.62704233 -63.13040161 204.73571777 C-69.64618644 221.41068414 -69.64618644 221.41068414 -75.87133789 238.19580078 C-77.46852274 242.62194978 -79.18451475 246.98989624 -80.94287109 251.35449219 C-82.7611967 255.90492552 -84.50502181 260.48354798 -86.25 265.0625 C-86.61351562 266.01060547 -86.97703125 266.95871094 -87.3515625 267.93554688 C-87.69445312 268.83466797 -88.03734375 269.73378906 -88.390625 270.66015625 C-88.70032227 271.47105713 -89.01001953 272.28195801 -89.32910156 273.11743164 C-90.055949 274.82390492 -90.055949 274.82390492 -90 276 C-18.72 276.495 -18.72 276.495 54 277 C51.45748433 267.65523309 51.45748433 267.65523309 48.3125 258.625 C48.05976318 257.96346924 47.80702637 257.30193848 47.54663086 256.62036133 C46.99618414 255.18079507 46.44345936 253.74209819 45.88867188 252.30419922 C44.26839512 248.10305305 42.66672845 243.89479432 41.0625 239.6875 C40.5526355 238.35259521 40.5526355 238.35259521 40.0324707 236.99072266 C37.5196788 230.40008639 35.07037169 223.78792611 32.64477539 217.16479492 C30.47653507 211.25837833 28.24879926 205.37617277 26 199.5 C23.15834304 192.07467415 20.37857069 184.62961312 17.64453125 177.1640625 C15.47632454 171.25790668 13.24863799 165.3759597 11 159.5 C8.18647358 152.1458386 5.42756435 144.77428395 2.71704102 137.3815918 C-0.42814024 128.81197098 -3.63942386 120.26736041 -6.8515625 111.72265625 C-8.18677646 108.17056135 -9.51606462 104.61641684 -10.8359375 101.05859375 C-11.10978271 100.32213623 -11.38362793 99.58567871 -11.66577148 98.8269043 C-12.38148093 96.9007606 -13.0951252 94.97384988 -13.80859375 93.046875 C-14.7620978 90.60840563 -15.77164886 88.30815749 -17 86 Z " fill="#FEFEFE" transform="translate(933,343)"/>
<path d="M0 0 C1.88662354 0.0707373 3.77324707 0.14147461 5.71704102 0.21435547 C29.31679486 1.0357023 52.89995482 1.1558137 76.51245117 1.13037109 C81.86088949 1.12467813 87.20927788 1.12804399 92.55771446 1.13383865 C114.0390162 1.15323106 135.4974168 1.08052521 156.96556091 0.26150513 C157.98722634 0.2248065 157.98722634 0.2248065 159.02953148 0.18736649 C160.83724725 0.12156588 162.64472036 0.04918926 164.4521637 -0.02371216 C167 0 167 0 168 1 C168.09909302 3.33160055 168.12970504 5.66629942 168.125 8 C168.12757813 9.27875 168.13015625 10.5575 168.1328125 11.875 C168 15 168 15 167 16 C165.43618311 16.19179418 163.86493488 16.32371225 162.29296875 16.4296875 C161.3191626 16.50098877 160.34535645 16.57229004 159.34204102 16.64575195 C158.30104248 16.72140381 157.26004395 16.79705566 156.1875 16.875 C138.87327513 17.91586271 138.87327513 17.91586271 124 26 C114.60822217 38.42604451 115.84887948 57.84738077 115.86628723 72.5088501 C115.8644149 73.93911001 115.86211253 75.36936941 115.85942191 76.79962802 C115.85334975 80.69797804 115.85343204 84.59630648 115.85461628 88.49466014 C115.85482146 92.71156689 115.8492905 96.92846692 115.84455872 101.14537048 C115.83627704 109.39484424 115.83350501 117.64431086 115.83294634 125.89378843 C115.83247004 132.60341562 115.83040963 139.31304048 115.82724571 146.02266693 C115.81844628 165.07284209 115.81382528 184.12301163 115.81457619 203.17318884 C115.81463612 204.71143741 115.81463612 204.71143741 115.81469727 206.28076172 C115.81475859 207.82090223 115.81475859 207.82090223 115.81482115 209.39215669 C115.81522752 226.02866684 115.80565831 242.66515434 115.7915589 259.30165794 C115.77717431 276.41050446 115.77028985 293.51933995 115.77115268 310.62819266 C115.7714839 320.22284385 115.76876939 329.81747129 115.75797462 339.412117 C115.74884222 347.5811065 115.74671683 355.75006148 115.75348405 363.91905388 C115.75673533 368.08104125 115.75685662 372.2429625 115.7481308 376.40494347 C115.74020292 380.22584862 115.74176047 384.04663592 115.75041493 387.86753842 C115.7526487 389.88122034 115.74517102 391.89490611 115.73717529 393.90857339 C115.66755124 416.84939967 115.66755124 416.84939967 125 437 C137.01487423 447.00774907 155.79259447 445.16027704 170.45703125 445.16796875 C171.93177825 445.17119654 173.40652496 445.17456164 174.88127136 445.17805481 C177.96146381 445.18400359 181.0416284 445.18589941 184.12182617 445.18530273 C187.22930785 445.18522193 190.33664066 445.1920971 193.4440918 445.20581055 C228.64002855 445.67969316 228.64002855 445.67969316 263 439 C264.14855469 438.64035156 265.29710937 438.28070312 266.48046875 437.91015625 C281.86884297 432.55218774 293.94900118 421.83607638 301.3125 407.3125 C305.08851931 399.46678132 307.79188593 391.40875912 310 383 C310.50273438 381.1128125 310.50273438 381.1128125 311.015625 379.1875 C313.99297779 367.2238218 315.5691224 354.99016726 317.25 342.79150391 C317.35130219 342.06780106 317.45260437 341.34409821 317.55697632 340.59846497 C317.83462676 338.60959556 318.10623098 336.61988478 318.37744141 334.63012695 C319 331 319 331 321 324 C326.28 324 331.56 324 337 324 C336.96447021 325.6092334 336.92894043 327.2184668 336.89233398 328.87646484 C336.03283803 368.64061105 336.14069047 407.94728402 339.07128906 447.64599609 C339.13957916 448.59279739 339.20786926 449.53959869 339.27822876 450.51509094 C339.40808004 452.30822344 339.5423308 454.10104408 339.68148804 455.89347839 C339.82752326 457.92651442 339.91974019 459.96330657 340 462 C339 463 339 463 337.23666584 463.08318436 C336.07690985 463.05380699 336.07690985 463.05380699 334.89372444 463.02383614 C334.00950664 463.00416826 333.12528883 462.98450037 332.21427655 462.9642365 C331.23833122 462.93761835 330.26238589 462.9110002 329.25686646 462.88357544 C327.14687669 462.83529966 325.03688555 462.78708408 322.92689323 462.73892021 C321.80239321 462.71139286 320.67789318 462.6838655 319.51931739 462.65550399 C300.56261614 462.19766456 281.61019584 461.89382396 262.64794922 461.87060547 C261.65126417 461.86932089 260.65457913 461.86803631 259.62769151 461.86671281 C253.4286241 461.86041739 247.22957597 461.86181998 241.03050756 461.8656745 C235.43782865 461.86829763 229.84515094 461.86583391 224.25247192 461.86428833 C214.87306415 461.86249357 205.49366436 461.86479962 196.11425781 461.86962891 C186.63215621 461.87445641 177.15007035 461.87445063 167.66796875 461.86962891 C96.78681597 461.809253 96.78681597 461.809253 25.91554832 462.84966087 C17.27650918 463.03726153 8.64061368 463.0480585 0 463 C0 458.05 0 453.1 0 448 C2.55282356 446.72358822 4.72157451 446.63382438 7.56640625 446.3515625 C8.69240234 446.23296875 9.81839844 446.114375 10.97851562 445.9921875 C13.33999194 445.75024878 15.7019699 445.51315019 18.06445312 445.28125 C26.93639921 444.334103 36.11253329 443.12219263 43 437 C51.27182807 425.41547339 51.30034448 412.55251472 51.25396729 398.78088379 C51.2562762 397.27352578 51.2594556 395.7661689 51.26342177 394.25881433 C51.27171925 390.14748836 51.26766764 386.03625603 51.26144934 381.92492986 C51.25690505 377.47905569 51.26391837 373.03319708 51.26940918 368.58732605 C51.27828379 359.88999986 51.27638979 351.19270828 51.2705839 342.49538076 C51.2660598 335.42435191 51.26545774 328.35333274 51.26763153 321.28230286 C51.267938 320.27438656 51.26824446 319.26647026 51.26856022 318.22801104 C51.26919969 316.18019322 51.26984812 314.13237541 51.2705054 312.08455759 C51.27620303 292.90015867 51.26965969 273.71577888 51.25890467 254.5313831 C51.24996967 238.08455181 51.25152187 221.63774875 51.26074219 205.19091797 C51.27145483 186.07328944 51.27565376 166.95567766 51.26951766 147.83804655 C51.26888059 145.79793008 51.26825185 143.75781362 51.26763153 141.71769714 C51.26732298 140.71402529 51.26701443 139.71035344 51.26669653 138.6762673 C51.26497257 131.61700388 51.26787823 124.55775114 51.27259064 117.49848938 C51.27821051 108.89094084 51.27665977 100.28342875 51.26602915 91.67588437 C51.26078733 87.28756653 51.25869021 82.89930939 51.26532745 78.51099205 C51.27131997 74.48798116 51.26795773 70.46508683 51.25737235 66.4420864 C51.25515225 64.9927134 51.25624305 63.5433304 51.26112393 62.09396392 C51.30324973 48.53675364 51.03375101 34.89671148 41.47265625 24.30859375 C30.83712113 15.59733638 12.8833457 16.8859906 0 16 C0 10.72 0 5.44 0 0 Z " fill="#FEFEFE" transform="translate(378,346)"/>
</svg>
